<mxfile host="app.diagrams.net" modified="2020-10-28T16:27:17.053Z" agent="5.0 (Windows NT 10.0; Win64; x64) AppleWebKit/537.36 (KHTML, like Gecko) Chrome/86.0.4240.80 Safari/537.36 Edg/86.0.622.48" etag="Tkbue8cpAXIyTWOGYFah" version="13.8.5" type="github">
  <diagram id="R2lEEEUBdFMjLlhIrx00" name="Page-1">
    <mxGraphModel dx="525" dy="292" grid="1" gridSize="10" guides="1" tooltips="1" connect="1" arrows="1" fold="1" page="1" pageScale="1" pageWidth="850" pageHeight="1100" math="0" shadow="0" extFonts="Permanent Marker^https://fonts.googleapis.com/css?family=Permanent+Marker">
      <root>
        <mxCell id="0" />
        <mxCell id="1" parent="0" />
        <mxCell id="s_WPwTEqJpla9Use9k7m-1" value="Jugadores" style="whiteSpace=wrap;html=1;align=center;" vertex="1" parent="1">
          <mxGeometry x="30" y="210" width="100" height="40" as="geometry" />
        </mxCell>
        <mxCell id="s_WPwTEqJpla9Use9k7m-2" value="Alianzas" style="whiteSpace=wrap;html=1;align=center;" vertex="1" parent="1">
          <mxGeometry x="380" y="170" width="100" height="40" as="geometry" />
        </mxCell>
        <mxCell id="s_WPwTEqJpla9Use9k7m-3" value="Sectores" style="whiteSpace=wrap;html=1;align=center;" vertex="1" parent="1">
          <mxGeometry x="420" y="360" width="100" height="40" as="geometry" />
        </mxCell>
        <mxCell id="s_WPwTEqJpla9Use9k7m-4" value="Alianzas" style="shape=table;startSize=30;container=1;collapsible=1;childLayout=tableLayout;fixedRows=1;rowLines=0;fontStyle=1;align=center;resizeLast=1;" vertex="1" parent="1">
          <mxGeometry x="570" y="50" width="180" height="160" as="geometry" />
        </mxCell>
        <mxCell id="s_WPwTEqJpla9Use9k7m-5" value="" style="shape=partialRectangle;collapsible=0;dropTarget=0;pointerEvents=0;fillColor=none;top=0;left=0;bottom=1;right=0;points=[[0,0.5],[1,0.5]];portConstraint=eastwest;" vertex="1" parent="s_WPwTEqJpla9Use9k7m-4">
          <mxGeometry y="30" width="180" height="30" as="geometry" />
        </mxCell>
        <mxCell id="s_WPwTEqJpla9Use9k7m-6" value="PK" style="shape=partialRectangle;connectable=0;fillColor=none;top=0;left=0;bottom=0;right=0;fontStyle=1;overflow=hidden;" vertex="1" parent="s_WPwTEqJpla9Use9k7m-5">
          <mxGeometry width="30" height="30" as="geometry" />
        </mxCell>
        <mxCell id="s_WPwTEqJpla9Use9k7m-7" value="ID" style="shape=partialRectangle;connectable=0;fillColor=none;top=0;left=0;bottom=0;right=0;align=left;spacingLeft=6;fontStyle=5;overflow=hidden;" vertex="1" parent="s_WPwTEqJpla9Use9k7m-5">
          <mxGeometry x="30" width="150" height="30" as="geometry" />
        </mxCell>
        <mxCell id="s_WPwTEqJpla9Use9k7m-8" value="" style="shape=partialRectangle;collapsible=0;dropTarget=0;pointerEvents=0;fillColor=none;top=0;left=0;bottom=0;right=0;points=[[0,0.5],[1,0.5]];portConstraint=eastwest;" vertex="1" parent="s_WPwTEqJpla9Use9k7m-4">
          <mxGeometry y="60" width="180" height="30" as="geometry" />
        </mxCell>
        <mxCell id="s_WPwTEqJpla9Use9k7m-9" value="" style="shape=partialRectangle;connectable=0;fillColor=none;top=0;left=0;bottom=0;right=0;editable=1;overflow=hidden;" vertex="1" parent="s_WPwTEqJpla9Use9k7m-8">
          <mxGeometry width="30" height="30" as="geometry" />
        </mxCell>
        <mxCell id="s_WPwTEqJpla9Use9k7m-10" value="Tergs" style="shape=partialRectangle;connectable=0;fillColor=none;top=0;left=0;bottom=0;right=0;align=left;spacingLeft=6;overflow=hidden;" vertex="1" parent="s_WPwTEqJpla9Use9k7m-8">
          <mxGeometry x="30" width="150" height="30" as="geometry" />
        </mxCell>
        <mxCell id="s_WPwTEqJpla9Use9k7m-11" value="" style="shape=partialRectangle;collapsible=0;dropTarget=0;pointerEvents=0;fillColor=none;top=0;left=0;bottom=0;right=0;points=[[0,0.5],[1,0.5]];portConstraint=eastwest;" vertex="1" parent="s_WPwTEqJpla9Use9k7m-4">
          <mxGeometry y="90" width="180" height="30" as="geometry" />
        </mxCell>
        <mxCell id="s_WPwTEqJpla9Use9k7m-12" value="" style="shape=partialRectangle;connectable=0;fillColor=none;top=0;left=0;bottom=0;right=0;editable=1;overflow=hidden;" vertex="1" parent="s_WPwTEqJpla9Use9k7m-11">
          <mxGeometry width="30" height="30" as="geometry" />
        </mxCell>
        <mxCell id="s_WPwTEqJpla9Use9k7m-13" value="Yinans" style="shape=partialRectangle;connectable=0;fillColor=none;top=0;left=0;bottom=0;right=0;align=left;spacingLeft=6;overflow=hidden;" vertex="1" parent="s_WPwTEqJpla9Use9k7m-11">
          <mxGeometry x="30" width="150" height="30" as="geometry" />
        </mxCell>
        <mxCell id="s_WPwTEqJpla9Use9k7m-14" value="" style="shape=partialRectangle;collapsible=0;dropTarget=0;pointerEvents=0;fillColor=none;top=0;left=0;bottom=0;right=0;points=[[0,0.5],[1,0.5]];portConstraint=eastwest;" vertex="1" parent="s_WPwTEqJpla9Use9k7m-4">
          <mxGeometry y="120" width="180" height="30" as="geometry" />
        </mxCell>
        <mxCell id="s_WPwTEqJpla9Use9k7m-15" value="" style="shape=partialRectangle;connectable=0;fillColor=none;top=0;left=0;bottom=0;right=0;editable=1;overflow=hidden;" vertex="1" parent="s_WPwTEqJpla9Use9k7m-14">
          <mxGeometry width="30" height="30" as="geometry" />
        </mxCell>
        <mxCell id="s_WPwTEqJpla9Use9k7m-16" value="Terrins" style="shape=partialRectangle;connectable=0;fillColor=none;top=0;left=0;bottom=0;right=0;align=left;spacingLeft=6;overflow=hidden;" vertex="1" parent="s_WPwTEqJpla9Use9k7m-14">
          <mxGeometry x="30" width="150" height="30" as="geometry" />
        </mxCell>
        <mxCell id="s_WPwTEqJpla9Use9k7m-17" value="Personajes" style="whiteSpace=wrap;html=1;align=center;" vertex="1" parent="1">
          <mxGeometry x="250" y="260" width="100" height="40" as="geometry" />
        </mxCell>
        <mxCell id="s_WPwTEqJpla9Use9k7m-18" value="Planetas" style="whiteSpace=wrap;html=1;align=center;" vertex="1" parent="1">
          <mxGeometry x="250" y="360" width="100" height="40" as="geometry" />
        </mxCell>
        <mxCell id="s_WPwTEqJpla9Use9k7m-19" value="Recursos" style="whiteSpace=wrap;html=1;align=center;" vertex="1" parent="1">
          <mxGeometry x="250" y="180" width="100" height="40" as="geometry" />
        </mxCell>
        <mxCell id="s_WPwTEqJpla9Use9k7m-20" value="Construcciones" style="whiteSpace=wrap;html=1;align=center;" vertex="1" parent="1">
          <mxGeometry x="50" y="360" width="100" height="40" as="geometry" />
        </mxCell>
      </root>
    </mxGraphModel>
  </diagram>
</mxfile>
